<svg id="Layer_1" data-name="Layer 1" xmlns="http://www.w3.org/2000/svg" viewBox="0 0 207.7 55.8"><defs><style>.cls-1{fill:#ffffff;}</style></defs><title>CSUN-LOGO</title><path class="cls-1" d="M186.9,2.1V5c7.5.9,9.2,3.7,9.2,11V39.2h-.4L167.4,2h-37V4.9c7.5.9,9.2,3.7,9.2,11V35.7c0,6-1.2,8.9-3.8,11.6a12.3,12.3,0,0,1-9.1,3.4c-8.5,0-13.7-4-13.7-13.3V8.3c0-2.6,1.4-3.2,6.9-3.4v-3H87.8c-1.6,0-5,0-6.6-.2S77.6.7,76,.4A33.93,33.93,0,0,0,70.5,0C60.3,0,53.4,7.3,53.4,17.3c0,9.8,7.9,12.9,16,15.4,9.1,3,12.6,5.1,12.6,10.6,0,4.2-2.9,8.9-9.8,8.9-6.6,0-11.5-4-15.5-13H52.8V55.6h3.4l2.7-2.4a31,31,0,0,0,12.3,2.4c13.4,0,18.7-9,18.7-17.8,0-9.8-7.8-12.9-15.1-15.3-8.7-2.8-12.6-4.5-12.6-9.9,0-5.2,3.6-8.3,8.4-8.3,5.8,0,10.7,2,13.2,9.4h3.3V12.3c0-3.9,2.9-7.1,7.6-7.1s7.6,3.2,7.6,7.1V38c0,11.7,8.1,17.6,21.4,17.6s20.2-7.7,20.2-17.9V12.3c0-3.9,2.9-7.1,7.5-7.1s7.5,3.2,7.5,7.1v28c0,7.5-1,10.1-8.1,11.1v2.9h20.6V51.4c-7.6-1-8.6-3.7-8.6-11.1V13.7h.3l31.8,42h5.2V16.1c0-7.4.6-10,7.6-11V2.2H186.9V2.1Z"></path><path class="cls-1" d="M29.2,50.7c-8.4,0-17.1-7.6-17.1-23.4C12.1,11.9,19.3,4,27.5,4c7,0,12.2,5.8,15.4,15.5h3.6V.6H43.3L41,4A29,29,0,0,0,27.7.6C12,.6,0,12.5,0,28.7,0,44.5,9.7,55.8,26.3,55.8c11.4,0,18.6-6.3,22.3-15l-3-1.4C41.8,46.9,36.6,50.7,29.2,50.7Z"></path></svg>