<?xml version="1.0" encoding="utf-8"?>
<!-- Generator: Adobe Illustrator 21.0.2, SVG Export Plug-In . SVG Version: 6.00 Build 0)  -->
<svg version="1.1" id="Layer_1" xmlns="http://www.w3.org/2000/svg" xmlns:xlink="http://www.w3.org/1999/xlink" x="0px" y="0px"
	 viewBox="0 0 792 612" style="enable-background:new 0 0 792 612;" xml:space="preserve">
<style type="text/css">
	.st0{fill:#CF0A2C;}
</style>
<g>
	<rect x="397.3" y="269.4" class="st0" width="1.3" height="73.2"/>
	<g>
		<path class="st0" d="M455.8,285.1c0-3.1,2.3-5.5,5-5.5c1.3,0,2.3,0.5,2.9,1.2l0.3-1.2h1.2v4.1H464c-0.7-1.9-1.7-3-3-3
			c-1.7,0-2.9,1.2-2.9,4.2c0,2.8,1.1,4.3,3.1,4.3c1.7,0,2.7-1.4,3-3.2h1.3c-0.3,2.8-2,4.4-4.6,4.4
			C457.8,290.6,455.8,288.2,455.8,285.1z"/>
		<path class="st0" d="M476,286.8h-3.7l-0.8,2.3h1.3v1.2H469v-1.2h1.1l3.5-9.3h2l3.4,9.3h1.4v1.2h-5.2v-1.2h1.6L476,286.8z
			 M472.7,285.7h2.9l-1.4-4.1h-0.1L472.7,285.7z"/>
		<path class="st0" d="M489.2,279.9v1.2h-1.7v8.1h2c1.3,0,1.5-0.3,2.3-2.9h1v4.1h-8.9v-1.2h1.6v-8.1h-1.6v-1.2H489.2z"/>
		<path class="st0" d="M497,289.1h1.6V281H497v-1.2h5.3v1.2h-1.6v8.1h1.6v1.2H497V289.1z"/>
		<path class="st0" d="M506.6,289.1h1.6V281h-1.6v-1.2h9.3v3.6h-1c-0.6-2.1-0.9-2.4-2.2-2.4h-2.5v3.6h0.8c1,0,1.2-0.2,1.4-1.6h1v4.3
			h-1c-0.2-1.4-0.4-1.6-1.4-1.6h-0.8v3.4h1.9v1.2h-5.5L506.6,289.1L506.6,289.1z"/>
		<path class="st0" d="M520.1,285.1c0-3.2,2.4-5.5,5.2-5.5c3,0,5.2,2.2,5.2,5.5c0,3.2-2.4,5.5-5.2,5.5
			C522.4,290.6,520.1,288.3,520.1,285.1z M528.2,285.1c0-2.8-1-4.3-2.9-4.3s-2.9,1.5-2.9,4.3s1,4.3,2.9,4.3S528.2,287.9,528.2,285.1
			z"/>
		<path class="st0" d="M538.4,289.1h1.6v1.2h-5.3v-1.2h1.6V281h-1.6v-1.2h5.4c3.2,0,4.1,1.4,4.1,2.7c0,1.2-0.7,2.3-2.9,2.6v0.1
			c1.8,0.3,2.3,1.1,2.4,2.3l0.1,0.9c0,0.6,0.2,0.8,0.5,0.8s0.4-0.2,0.7-0.8l0.8,0.3c-0.3,1-0.9,1.8-2,1.8c-1.3,0-2.1-0.6-2.1-2.2v-1
			c0-1.1-0.3-1.6-1.6-1.6h-1.6v3.4H538.4z M540,284.6c1.5,0,2-0.6,2-1.9c0-1.1-0.4-1.7-1.9-1.7h-1.7v3.6H540z"/>
		<path class="st0" d="M552.1,282.1L552.1,282.1l-0.1,7h1.6v1.2h-4.3v-1.2h1.5V281h-1.5v-1.2h3.9l4.9,7.5h0.1V281h-1.6v-1.2h4.3v1.2
			h-1.5v9.5h-1.8L552.1,282.1z"/>
		<path class="st0" d="M565,289.1h1.6V281H565v-1.2h5.3v1.2h-1.6v8.1h1.6v1.2H565V289.1z"/>
		<path class="st0" d="M581.1,286.8h-3.7l-0.8,2.3h1.3v1.2H574v-1.2h1.1l3.5-9.3h2l3.4,9.3h1.4v1.2h-5.2v-1.2h1.6L581.1,286.8z
			 M577.8,285.7h2.9l-1.4-4.1h-0.1L577.8,285.7z"/>
		<path class="st0" d="M418.8,307.6h1.1c1,2,1.7,2.7,3.3,2.7c1.2,0,1.9-0.6,1.9-1.6c0-1.1-1.2-1.4-2.7-1.8c-1.7-0.4-3.5-1-3.5-3.2
			c0-1.7,1.4-3.2,3.5-3.2c1,0,2,0.4,2.6,1.1l0.3-1.1h1.2v3.7h-1.1c-0.8-1.9-1.7-2.6-3-2.6c-1,0-1.6,0.6-1.6,1.5
			c0,1.3,1.3,1.5,2.8,1.9c1.7,0.4,3.4,0.9,3.4,3.1c0,1.9-1.5,3.3-3.7,3.3c-1.2,0-2.4-0.5-3-1.2l-0.4,1.1h-1.2v-3.7H418.8z"/>
		<path class="st0" d="M433.3,310h1.8v-8.2h-0.6c-1.3,0-1.6,0.4-2.3,2.9h-1v-3.9h9.8v3.9h-1c-0.7-2.5-1-2.9-2.3-2.9h-0.6v8.2h1.8
			v1.2h-5.6L433.3,310L433.3,310z"/>
		<path class="st0" d="M450.9,307.7h-3.7l-0.8,2.3h1.3v1.2h-3.8V310h1.1l3.5-9.3h2l3.4,9.3h1.4v1.2h-5.2V310h1.6L450.9,307.7z
			 M447.6,306.6h2.9l-1.4-4.1H449L447.6,306.6z"/>
		<path class="st0" d="M460.2,310h1.8v-8.2h-0.6c-1.3,0-1.6,0.4-2.3,2.9h-1v-3.9h9.8v3.9h-1c-0.7-2.5-1-2.9-2.3-2.9H464v8.2h1.8v1.2
			h-5.6L460.2,310L460.2,310z"/>
		<path class="st0" d="M472.1,310h1.6v-8h-1.6v-1.2h9.5v3.5h-1c-0.5-1.9-0.7-2.4-2-2.4h-2.9v3.4h1c1,0,1.2-0.2,1.4-1.5h1v4.2h-1
			c-0.2-1.4-0.4-1.6-1.4-1.6h-1v3.6h2.8c1.5,0,1.7-0.5,2.2-2.7h1v3.9H472V310H472.1z"/>
		<path class="st0" d="M493.6,307.9V302h-1.5v-1.2h5v1.2h-1.5v5.5c0,2,0.9,2.7,2.7,2.7c0.8,0,1.4-0.3,1.8-0.7
			c0.5-0.5,0.7-1.2,0.7-2.4V302h-1.5v-1.2h4.3v1.2h-1.4v5.9c0,1.9-1.4,3.6-4.2,3.6C495,311.5,493.6,310.1,493.6,307.9z"/>
		<path class="st0" d="M510.4,303.1h-0.1v7h1.6v1.2h-4.3V310h1.5v-8h-1.5v-1.2h3.9l4.9,7.5h0.1V302h-1.6v-1.2h4.3v1.2h-1.5v9.5h-1.8
			L510.4,303.1z"/>
		<path class="st0" d="M523.3,310h1.6v-8h-1.6v-1.2h5.3v1.2H527v8.1h1.6v1.2h-5.3V310z"/>
		<path class="st0" d="M533.7,302h-1.4v-1.2h5.2v1.2H536l2.6,7.3h0.1l2.7-7.3H540v-1.2h3.8v1.2h-1.1l-3.6,9.3h-1.9L533.7,302z"/>
		<path class="st0" d="M547.3,310h1.6v-8h-1.6v-1.2h9.5v3.5h-1c-0.5-1.9-0.7-2.4-2-2.4H551v3.4h1c1,0,1.2-0.2,1.4-1.5h1v4.2h-1
			c-0.2-1.4-0.4-1.6-1.4-1.6h-1v3.6h2.8c1.5,0,1.7-0.5,2.2-2.7h1v3.9h-9.7V310z"/>
		<path class="st0" d="M565.2,310h1.6v1.2h-5.3V310h1.6v-8h-1.6v-1.2h5.4c3.2,0,4.1,1.4,4.1,2.7c0,1.2-0.7,2.3-2.9,2.6v0.1
			c1.8,0.3,2.3,1.1,2.4,2.3l0.1,0.9c0,0.6,0.2,0.8,0.5,0.8s0.4-0.2,0.7-0.8l0.8,0.3c-0.3,1-0.9,1.8-2,1.8c-1.3,0-2.1-0.6-2.1-2.2v-1
			c0-1.1-0.3-1.6-1.6-1.6h-1.6v3.3H565.2z M566.7,305.5c1.5,0,2-0.6,2-1.9c0-1.1-0.4-1.7-1.9-1.7h-1.7v3.6H566.7z"/>
		<path class="st0" d="M576.2,307.6h1.1c1,2,1.7,2.7,3.3,2.7c1.2,0,1.9-0.6,1.9-1.6c0-1.1-1.2-1.4-2.7-1.8c-1.7-0.4-3.5-1-3.5-3.2
			c0-1.7,1.4-3.2,3.5-3.2c1,0,2,0.4,2.6,1.1l0.3-1.1h1.2v3.7h-1.1c-0.8-1.9-1.7-2.6-3-2.6c-1,0-1.6,0.6-1.6,1.5
			c0,1.3,1.3,1.5,2.8,1.9c1.7,0.4,3.4,0.9,3.4,3.1c0,1.9-1.5,3.3-3.7,3.3c-1.2,0-2.4-0.5-3-1.2l-0.4,1.1h-1.2v-3.7H576.2z"/>
		<path class="st0" d="M588.7,310h1.6v-8h-1.6v-1.2h5.3v1.2h-1.6v8.1h1.6v1.2h-5.3V310z"/>
		<path class="st0" d="M600.5,310h1.8v-8.2h-0.6c-1.3,0-1.6,0.4-2.3,2.9h-1v-3.9h9.8v3.9h-1c-0.7-2.5-1-2.9-2.3-2.9h-0.6v8.2h1.8
			v1.2h-5.6L600.5,310L600.5,310z"/>
		<path class="st0" d="M619.9,302h-1.3v-1.2h3.8v1.2h-1.2l-3,4.9v3.2h1.5v1.2h-5.1V310h1.5v-3.1l-2.9-5H612v-1.2h4.9v1.2h-1.3
			l2.1,3.8L619.9,302z"/>
		<path class="st0" d="M453.9,324h-0.1v7h1.6v1.2H451V331h1.5v-8.1H451v-1.2h3.9l4.9,7.5h0.1v-6.3h-1.6v-1.2h4.3v1.2h-1.5v9.5h-1.8
			L453.9,324z"/>
		<path class="st0" d="M466.8,326.9c0-3.2,2.4-5.5,5.2-5.5c3,0,5.2,2.2,5.2,5.5c0,3.2-2.4,5.5-5.2,5.5
			C469.1,332.4,466.8,330.2,466.8,326.9z M475,326.9c0-2.8-1-4.3-2.9-4.3s-2.9,1.5-2.9,4.3s1,4.3,2.9,4.3
			C474,331.2,475,329.7,475,326.9z"/>
		<path class="st0" d="M485.2,330.9h1.6v1.2h-5.3v-1.2h1.6v-8.1h-1.6v-1.2h5.4c3.2,0,4.1,1.4,4.1,2.7c0,1.2-0.7,2.3-2.9,2.6v0.1
			c1.8,0.3,2.3,1.1,2.4,2.3l0.1,0.9c0,0.6,0.2,0.8,0.5,0.8s0.4-0.2,0.7-0.8l0.8,0.3c-0.3,1-0.9,1.8-2,1.8c-1.3,0-2.1-0.6-2.1-2.2v-1
			c0-1.1-0.3-1.6-1.6-1.6h-1.6v3.4H485.2z M486.7,326.4c1.5,0,2-0.6,2-1.9c0-1.1-0.4-1.7-1.9-1.7h-1.7v3.6H486.7z"/>
		<path class="st0" d="M497.8,330.9h1.8v-8.2H499c-1.3,0-1.6,0.4-2.3,2.9h-1v-3.9h9.8v3.9h-1c-0.7-2.5-1-2.9-2.3-2.9h-0.6v8.2h1.8
			v1.2h-5.6V330.9z"/>
		<path class="st0" d="M509.7,330.9h1.6v-8.1h-1.6v-1.2h5.1v1.2h-1.5v3.3h4.5v-3.3h-1.5v-1.2h5.1v1.2h-1.6v8.1h1.6v1.2h-5.1v-1.2
			h1.5v-3.7h-4.5v3.7h1.5v1.2h-5.1L509.7,330.9L509.7,330.9z"/>
		<path class="st0" d="M529.3,330.9h1.6v1.2h-5.3v-1.2h1.6v-8.1h-1.6v-1.2h5.4c3.2,0,4.1,1.4,4.1,2.7c0,1.2-0.7,2.3-2.9,2.6v0.1
			c1.8,0.3,2.3,1.1,2.4,2.3l0.1,0.9c0,0.6,0.2,0.8,0.5,0.8s0.4-0.2,0.7-0.8l0.8,0.3c-0.3,1-0.9,1.8-2,1.8c-1.3,0-2.1-0.6-2.1-2.2v-1
			c0-1.1-0.3-1.6-1.6-1.6h-1.6v3.4H529.3z M530.8,326.4c1.5,0,2-0.6,2-1.9c0-1.1-0.4-1.7-1.9-1.7h-1.7v3.6H530.8z"/>
		<path class="st0" d="M540.2,330.9h1.6v-8.1h-1.6v-1.2h5.3v1.2h-1.6v8.1h1.6v1.2h-5.3V330.9z"/>
		<path class="st0" d="M549.7,330.9h1.6v-8.1h-1.6v-1.2h4.6c4.1,0,6.1,2.1,6.1,5.1s-1.9,5.3-5.9,5.3h-4.7L549.7,330.9L549.7,330.9z
			 M554.5,331c2.5,0,3.6-1.1,3.6-4.2c0-2.8-1.1-3.9-3.7-3.9h-1v8.1H554.5z"/>
		<path class="st0" d="M569.7,332.4c-3,0-5-2.4-5-5.5c0-3,2.3-5.5,5-5.5c1.3,0,2.3,0.5,2.9,1.3l0.3-1.2h1.2v4.1h-1.3
			c-0.7-1.9-1.6-3-3-3c-1.6,0-2.9,1.2-2.9,4.2c0,2.7,1.1,4.3,3,4.3c1,0,1.5-0.5,1.8-1c0.3-0.4,0.4-1.2,0.4-1.8V328h-1.9v-1.2h5.2
			v1.2h-1.3v4.2h-1.2l-0.5-1.5C572.1,331.7,571.1,332.4,569.7,332.4z"/>
		<path class="st0" d="M579.4,330.9h1.6v-8.1h-1.6v-1.2h9.5v3.5h-1c-0.5-1.9-0.7-2.4-2-2.4H583v3.4h1c1,0,1.2-0.2,1.4-1.5h1v4.2h-1
			c-0.2-1.4-0.4-1.6-1.4-1.6h-1v3.6h2.8c1.5,0,1.7-0.5,2.2-2.7h1v3.9h-9.7v-1.1H579.4z"/>
	</g>
	<g>
		<path class="st0" d="M356.4,280.1v2.9c7.5,0.9,9.2,3.7,9.2,11v23.2h-0.4L336.9,280h-16.7h-20.3v2.9c7.5,0.9,9.2,3.7,9.2,11v19.8
			c0,6-1.2,8.9-3.8,11.6c-2.2,2.2-5.2,3.4-9.1,3.4c-8.5,0-13.7-4-13.7-13.3v-29.1c0-2.6,1.4-3.2,6.9-3.4v-3c-1.4,0-2.7,0-4.1,0
			c-3.2,0-6.5,0-9.7,0c-3.9,0-7.7,0-11.6,0c-3,0-3.8,0-6.7,0c-1.6,0-5,0-6.6-0.2c-1.7-0.3-3.6-1-5.2-1.3c-1.8-0.3-3.7-0.4-5.5-0.4
			c-10.2,0-17.1,7.3-17.1,17.3c0,9.8,7.9,12.9,16,15.4c9.1,3,12.6,5.1,12.6,10.6c0,4.2-2.9,8.9-9.8,8.9c-6.6,0-11.5-4-15.5-13h-3.9
			v16.4h3.4l2.7-2.4c3.1,1.5,8,2.4,12.3,2.4c13.4,0,18.7-9,18.7-17.8c0-9.8-7.8-12.9-15.1-15.3c-8.7-2.8-12.6-4.5-12.6-9.9
			c0-5.2,3.6-8.3,8.4-8.3c5.8,0,10.7,2,13.2,9.4h3.3v-1.4c0-3.9,2.9-7.1,7.6-7.1s7.6,3.2,7.6,7.1v9.1v14.7v1.9
			c0,11.7,8.1,17.6,21.4,17.6s20.2-7.7,20.2-17.9v-25.4c0-3.9,2.9-7.1,7.5-7.1s7.5,3.2,7.5,7.1v28c0,7.5-1,10.1-8.1,11.1v2.9h20.6
			v-2.9c-7.6-1-8.6-3.7-8.6-11.1v-26.6h0.3l31.8,42h5.2v-39.6c0-7.4,0.6-10,7.6-11v-2.9h-20.8V280.1z"/>
		<path class="st0" d="M198.7,328.7c-8.4,0-17.1-7.6-17.1-23.4c0-15.4,7.2-23.3,15.4-23.3c7,0,12.2,5.8,15.4,15.5h3.6v-18.9h-3.2
			l-2.3,3.4c-3.3-1.8-8.2-3.4-13.3-3.4c-15.7,0-27.7,11.9-27.7,28.1c0,15.8,9.7,27.1,26.3,27.1c11.4,0,18.6-6.3,22.3-15l-3-1.4
			C211.3,324.9,206.1,328.7,198.7,328.7z"/>
	</g>
</g>
<g>
	<g>
		<path class="st0" d="M378.4,330.1c0-2.3,1.7-4,4-4c2.3,0,4,1.7,4,4c0,2.3-1.7,4-4,4C380.1,334.2,378.4,332.4,378.4,330.1z
			 M385.8,330.1c0-2.1-1.3-3.5-3.4-3.5c-2,0-3.4,1.4-3.4,3.5c0,2.1,1.4,3.5,3.4,3.5C384.5,333.7,385.8,332.2,385.8,330.1z
			 M381.8,331.7h0.7v0.4h-2v-0.4h0.7v-3.3h-0.7V328h2.1c1.2,0,1.6,0.6,1.6,1.1c0,0.4-0.3,0.9-1.2,1v0.1c0.7,0.1,0.9,0.4,1,0.9l0,0.4
			c0,0.2,0.1,0.3,0.2,0.3c0.1,0,0.2-0.1,0.3-0.3l0.3,0.1c-0.1,0.4-0.4,0.7-0.8,0.7c-0.5,0-0.7-0.2-0.8-0.9l0-0.4
			c0-0.4-0.2-0.7-0.7-0.7h-0.7V331.7z M382.5,329.9c0.6,0,0.9-0.3,0.9-0.8c0-0.5-0.3-0.7-0.8-0.7h-0.7v1.5H382.5z"/>
	</g>
</g>
</svg>
