<?xml version="1.0" encoding="utf-8"?>
<!-- Generator: Adobe Illustrator 22.1.0, SVG Export Plug-In . SVG Version: 6.00 Build 0)  -->
<svg version="1.1" id="Layer_1" xmlns="http://www.w3.org/2000/svg" xmlns:xlink="http://www.w3.org/1999/xlink" x="0px" y="0px"
	 viewBox="0 0 452.9 73.2" style="enable-background:new 0 0 452.9 73.2;" xml:space="preserve">
<style type="text/css">
	.st0{fill:#FFFFFF;}
</style>
<g>
	<rect x="227.8" class="st0" width="1.3" height="73.2"/>
	<g>
		<path class="st0" d="M286.3,15.7c0-3.1,2.3-5.5,5-5.5c1.3,0,2.3,0.5,2.9,1.2l0.3-1.2h1.2v4.1h-1.2c-0.7-1.9-1.7-3-3-3
			c-1.7,0-2.9,1.2-2.9,4.2c0,2.8,1.1,4.3,3.1,4.3c1.7,0,2.7-1.4,3-3.2h1.3c-0.3,2.8-2,4.4-4.6,4.4C288.3,21.2,286.3,18.8,286.3,15.7
			z"/>
		<path class="st0" d="M306.5,17.4h-3.7l-0.8,2.3h1.3v1.2h-3.8v-1.2h1.1l3.5-9.3h2l3.4,9.3h1.4v1.2h-5.2v-1.2h1.6L306.5,17.4z
			 M303.2,16.3h2.9l-1.4-4.1h-0.1L303.2,16.3z"/>
		<path class="st0" d="M319.7,10.5v1.2H318v8.1h2c1.3,0,1.5-0.3,2.3-2.9h1V21h-8.9v-1.2h1.6v-8.1h-1.6v-1.2H319.7z"/>
		<path class="st0" d="M327.5,19.7h1.6v-8.1h-1.6v-1.2h5.3v1.2h-1.6v8.1h1.6v1.2h-5.3V19.7z"/>
		<path class="st0" d="M337.1,19.7h1.6v-8.1h-1.6v-1.2h9.3V14h-1c-0.6-2.1-0.9-2.4-2.2-2.4h-2.5v3.6h0.8c1,0,1.2-0.2,1.4-1.6h1v4.3
			h-1c-0.2-1.4-0.4-1.6-1.4-1.6h-0.8v3.4h1.9v1.2h-5.5V19.7L337.1,19.7z"/>
		<path class="st0" d="M350.6,15.7c0-3.2,2.4-5.5,5.2-5.5c3,0,5.2,2.2,5.2,5.5c0,3.2-2.4,5.5-5.2,5.5
			C352.9,21.2,350.6,18.9,350.6,15.7z M358.7,15.7c0-2.8-1-4.3-2.9-4.3s-2.9,1.5-2.9,4.3s1,4.3,2.9,4.3S358.7,18.5,358.7,15.7z"/>
		<path class="st0" d="M368.9,19.7h1.6v1.2h-5.3v-1.2h1.6v-8.1h-1.6v-1.2h5.4c3.2,0,4.1,1.4,4.1,2.7c0,1.2-0.7,2.3-2.9,2.6v0.1
			c1.8,0.3,2.3,1.1,2.4,2.3l0.1,0.9c0,0.6,0.2,0.8,0.5,0.8s0.4-0.2,0.7-0.8l0.8,0.3c-0.3,1-0.9,1.8-2,1.8c-1.3,0-2.1-0.6-2.1-2.2v-1
			c0-1.1-0.3-1.6-1.6-1.6H369v3.4L368.9,19.7L368.9,19.7z M370.5,15.2c1.5,0,2-0.6,2-1.9c0-1.1-0.4-1.7-1.9-1.7h-1.7v3.6H370.5z"/>
		<path class="st0" d="M382.6,12.7L382.6,12.7l-0.1,7h1.6v1.2h-4.3v-1.2h1.5v-8.1h-1.5v-1.2h3.9l4.9,7.5h0.1v-6.3h-1.6v-1.2h4.3v1.2
			h-1.5v9.5h-1.8L382.6,12.7z"/>
		<path class="st0" d="M395.5,19.7h1.6v-8.1h-1.6v-1.2h5.3v1.2h-1.6v8.1h1.6v1.2h-5.3V19.7z"/>
		<path class="st0" d="M411.6,17.4h-3.7l-0.8,2.3h1.3v1.2h-3.9v-1.2h1.1l3.5-9.3h2l3.4,9.3h1.4v1.2h-5.2v-1.2h1.6L411.6,17.4z
			 M408.3,16.3h2.9l-1.4-4.1h-0.1L408.3,16.3z"/>
		<path class="st0" d="M249.3,38.2h1.1c1,2,1.7,2.7,3.3,2.7c1.2,0,1.9-0.6,1.9-1.6c0-1.1-1.2-1.4-2.7-1.8c-1.7-0.4-3.5-1-3.5-3.2
			c0-1.7,1.4-3.2,3.5-3.2c1,0,2,0.4,2.6,1.1l0.3-1.1h1.2v3.7h-1.1c-0.8-1.9-1.7-2.6-3-2.6c-1,0-1.6,0.6-1.6,1.5
			c0,1.3,1.3,1.5,2.8,1.9c1.7,0.4,3.4,0.9,3.4,3.1c0,1.9-1.5,3.3-3.7,3.3c-1.2,0-2.4-0.5-3-1.2l-0.4,1.1h-1.2v-3.7L249.3,38.2
			L249.3,38.2z"/>
		<path class="st0" d="M263.8,40.6h1.8v-8.2H265c-1.3,0-1.6,0.4-2.3,2.9h-1v-3.9h9.8v3.9h-1c-0.7-2.5-1-2.9-2.3-2.9h-0.6v8.2h1.8
			v1.2h-5.6V40.6L263.8,40.6z"/>
		<path class="st0" d="M281.4,38.3h-3.7l-0.8,2.3h1.3v1.2h-3.8v-1.2h1.1l3.5-9.3h2l3.4,9.3h1.4v1.2h-5.2v-1.2h1.6L281.4,38.3z
			 M278.1,37.2h2.9l-1.4-4.1h-0.1L278.1,37.2z"/>
		<path class="st0" d="M290.7,40.6h1.8v-8.2h-0.6c-1.3,0-1.6,0.4-2.3,2.9h-1v-3.9h9.8v3.9h-1c-0.7-2.5-1-2.9-2.3-2.9h-0.6v8.2h1.8
			v1.2h-5.6V40.6L290.7,40.6z"/>
		<path class="st0" d="M302.6,40.6h1.6v-8h-1.6v-1.2h9.5v3.5h-1c-0.5-1.9-0.7-2.4-2-2.4h-2.9v3.4h1c1,0,1.2-0.2,1.4-1.5h1v4.2h-1
			c-0.2-1.4-0.4-1.6-1.4-1.6h-1v3.6h2.8c1.5,0,1.7-0.5,2.2-2.7h1v3.9h-9.7v-1.2H302.6z"/>
		<path class="st0" d="M324.1,38.5v-5.9h-1.5v-1.2h5v1.2h-1.5v5.5c0,2,0.9,2.7,2.7,2.7c0.8,0,1.4-0.3,1.8-0.7
			c0.5-0.5,0.7-1.2,0.7-2.4v-5.1h-1.5v-1.2h4.3v1.2h-1.4v5.9c0,1.9-1.4,3.6-4.2,3.6C325.5,42.1,324.1,40.7,324.1,38.5z"/>
		<path class="st0" d="M340.9,33.7h-0.1v7h1.6v1.2h-4.3v-1.3h1.5v-8h-1.5v-1.2h3.9l4.9,7.5h0.1v-6.3h-1.6v-1.2h4.3v1.2h-1.5v9.5
			h-1.8L340.9,33.7z"/>
		<path class="st0" d="M353.8,40.6h1.6v-8h-1.6v-1.2h5.3v1.2h-1.6v8.1h1.6v1.2h-5.3V40.6z"/>
		<path class="st0" d="M364.2,32.6h-1.4v-1.2h5.2v1.2h-1.5l2.6,7.3h0.1l2.7-7.3h-1.4v-1.2h3.8v1.2h-1.1l-3.6,9.3h-1.9L364.2,32.6z"
			/>
		<path class="st0" d="M377.8,40.6h1.6v-8h-1.6v-1.2h9.5v3.5h-1c-0.5-1.9-0.7-2.4-2-2.4h-2.8v3.4h1c1,0,1.2-0.2,1.4-1.5h1v4.2h-1
			c-0.2-1.4-0.4-1.6-1.4-1.6h-1v3.6h2.8c1.5,0,1.7-0.5,2.2-2.7h1v3.9h-9.7V40.6z"/>
		<path class="st0" d="M395.7,40.6h1.6v1.2H392v-1.2h1.6v-8H392v-1.2h5.4c3.2,0,4.1,1.4,4.1,2.7c0,1.2-0.7,2.3-2.9,2.6v0.1
			c1.8,0.3,2.3,1.1,2.4,2.3l0.1,0.9c0,0.6,0.2,0.8,0.5,0.8s0.4-0.2,0.7-0.8l0.8,0.3c-0.3,1-0.9,1.8-2,1.8c-1.3,0-2.1-0.6-2.1-2.2v-1
			c0-1.1-0.3-1.6-1.6-1.6h-1.6v3.3L395.7,40.6L395.7,40.6z M397.2,36.1c1.5,0,2-0.6,2-1.9c0-1.1-0.4-1.7-1.9-1.7h-1.7v3.6H397.2z"/>
		<path class="st0" d="M406.7,38.2h1.1c1,2,1.7,2.7,3.3,2.7c1.2,0,1.9-0.6,1.9-1.6c0-1.1-1.2-1.4-2.7-1.8c-1.7-0.4-3.5-1-3.5-3.2
			c0-1.7,1.4-3.2,3.5-3.2c1,0,2,0.4,2.6,1.1l0.3-1.1h1.2v3.7h-1.1c-0.8-1.9-1.7-2.6-3-2.6c-1,0-1.6,0.6-1.6,1.5
			c0,1.3,1.3,1.5,2.8,1.9c1.7,0.4,3.4,0.9,3.4,3.1c0,1.9-1.5,3.3-3.7,3.3c-1.2,0-2.4-0.5-3-1.2l-0.4,1.1h-1.2v-3.7L406.7,38.2
			L406.7,38.2z"/>
		<path class="st0" d="M419.2,40.6h1.6v-8h-1.6v-1.2h5.3v1.2h-1.6v8.1h1.6v1.2h-5.3V40.6z"/>
		<path class="st0" d="M431,40.6h1.8v-8.2h-0.6c-1.3,0-1.6,0.4-2.3,2.9h-1v-3.9h9.8v3.9h-1c-0.7-2.5-1-2.9-2.3-2.9h-0.6v8.2h1.8v1.2
			H431L431,40.6L431,40.6z"/>
		<path class="st0" d="M450.4,32.6h-1.3v-1.2h3.8v1.2h-1.2l-3,4.9v3.2h1.5v1.2h-5.1v-1.3h1.5v-3.1l-2.9-5h-1.2v-1.2h4.9v1.2h-1.3
			l2.1,3.8L450.4,32.6z"/>
		<path class="st0" d="M284.4,54.6h-0.1v7h1.6v1.2h-4.4v-1.2h1.5v-8.1h-1.5v-1.2h3.9l4.9,7.5h0.1v-6.3h-1.6v-1.2h4.3v1.2h-1.5V63
			h-1.8L284.4,54.6z"/>
		<path class="st0" d="M297.3,57.5c0-3.2,2.4-5.5,5.2-5.5c3,0,5.2,2.2,5.2,5.5c0,3.2-2.4,5.5-5.2,5.5
			C299.6,63,297.3,60.8,297.3,57.5z M305.5,57.5c0-2.8-1-4.3-2.9-4.3c-1.9,0-2.9,1.5-2.9,4.3s1,4.3,2.9,4.3
			C304.5,61.8,305.5,60.3,305.5,57.5z"/>
		<path class="st0" d="M315.7,61.5h1.6v1.2H312v-1.2h1.6v-8.1H312v-1.2h5.4c3.2,0,4.1,1.4,4.1,2.7c0,1.2-0.7,2.3-2.9,2.6v0.1
			c1.8,0.3,2.3,1.1,2.4,2.3l0.1,0.9c0,0.6,0.2,0.8,0.5,0.8s0.4-0.2,0.7-0.8l0.8,0.3c-0.3,1-0.9,1.8-2,1.8c-1.3,0-2.1-0.6-2.1-2.2v-1
			c0-1.1-0.3-1.6-1.6-1.6h-1.6v3.4L315.7,61.5L315.7,61.5z M317.2,57c1.5,0,2-0.6,2-1.9c0-1.1-0.4-1.7-1.9-1.7h-1.7V57H317.2z"/>
		<path class="st0" d="M328.3,61.5h1.8v-8.2h-0.6c-1.3,0-1.6,0.4-2.3,2.9h-1v-3.9h9.8v3.9h-1c-0.7-2.5-1-2.9-2.3-2.9h-0.6v8.2h1.8
			v1.2h-5.6V61.5z"/>
		<path class="st0" d="M340.2,61.5h1.6v-8.1h-1.6v-1.2h5.1v1.2h-1.5v3.3h4.5v-3.3h-1.5v-1.2h5.1v1.2h-1.6v8.1h1.6v1.2h-5.1v-1.2h1.5
			v-3.7h-4.5v3.7h1.5v1.2h-5.1V61.5L340.2,61.5z"/>
		<path class="st0" d="M359.8,61.5h1.6v1.2h-5.3v-1.2h1.6v-8.1h-1.6v-1.2h5.4c3.2,0,4.1,1.4,4.1,2.7c0,1.2-0.7,2.3-2.9,2.6v0.1
			c1.8,0.3,2.3,1.1,2.4,2.3l0.1,0.9c0,0.6,0.2,0.8,0.5,0.8s0.4-0.2,0.7-0.8l0.8,0.3c-0.3,1-0.9,1.8-2,1.8c-1.3,0-2.1-0.6-2.1-2.2v-1
			c0-1.1-0.3-1.6-1.6-1.6h-1.6v3.4L359.8,61.5L359.8,61.5z M361.3,57c1.5,0,2-0.6,2-1.9c0-1.1-0.4-1.7-1.9-1.7h-1.7V57H361.3z"/>
		<path class="st0" d="M370.7,61.5h1.6v-8.1h-1.6v-1.2h5.3v1.2h-1.6v8.1h1.6v1.2h-5.3V61.5z"/>
		<path class="st0" d="M380.2,61.5h1.6v-8.1h-1.6v-1.2h4.6c4.1,0,6.1,2.1,6.1,5.1s-1.9,5.3-5.9,5.3h-4.7L380.2,61.5L380.2,61.5z
			 M385,61.6c2.5,0,3.6-1.1,3.6-4.2c0-2.8-1.1-3.9-3.7-3.9h-1v8.1H385z"/>
		<path class="st0" d="M400.2,63c-3,0-5-2.4-5-5.5c0-3,2.3-5.5,5-5.5c1.3,0,2.3,0.5,2.9,1.3l0.3-1.2h1.2v4.1h-1.3
			c-0.7-1.9-1.6-3-3-3c-1.6,0-2.9,1.2-2.9,4.2c0,2.7,1.1,4.3,3,4.3c1,0,1.5-0.5,1.8-1c0.3-0.4,0.4-1.2,0.4-1.8v-0.3h-1.9v-1.2h5.2
			v1.2h-1.3v4.2h-1.2l-0.5-1.5C402.6,62.3,401.6,63,400.2,63z"/>
		<path class="st0" d="M409.9,61.5h1.6v-8.1h-1.6v-1.2h9.5v3.5h-1c-0.5-1.9-0.7-2.4-2-2.4h-2.9v3.4h1c1,0,1.2-0.2,1.4-1.5h1v4.2h-1
			c-0.2-1.4-0.4-1.6-1.4-1.6h-1v3.6h2.8c1.5,0,1.7-0.5,2.2-2.7h1v3.9h-9.7v-1.1L409.9,61.5L409.9,61.5z"/>
	</g>
	<g>
		<path class="st0" d="M186.9,10.7v2.9c7.5,0.9,9.2,3.7,9.2,11v23.2h-0.4l-28.3-37.2h-16.7h-20.3v2.9c7.5,0.9,9.2,3.7,9.2,11v19.8
			c0,6-1.2,8.9-3.8,11.6c-2.2,2.2-5.2,3.4-9.1,3.4c-8.5,0-13.7-4-13.7-13.3V16.9c0-2.6,1.4-3.2,6.9-3.4v-3c-1.4,0-2.7,0-4.1,0
			c-3.2,0-6.5,0-9.7,0c-3.9,0-7.7,0-11.6,0c-3,0-3.8,0-6.7,0c-1.6,0-5,0-6.6-0.2C79.5,10,77.6,9.3,76,9c-1.8-0.3-3.7-0.4-5.5-0.4
			c-10.2,0-17.1,7.3-17.1,17.3c0,9.8,7.9,12.9,16,15.4c9.1,3,12.6,5.1,12.6,10.6c0,4.2-2.9,8.9-9.8,8.9c-6.6,0-11.5-4-15.5-13h-3.9
			v16.4h3.4l2.7-2.4c3.1,1.5,8,2.4,12.3,2.4c13.4,0,18.7-9,18.7-17.8c0-9.8-7.8-12.9-15.1-15.3c-8.7-2.8-12.6-4.5-12.6-9.9
			c0-5.2,3.6-8.3,8.4-8.3c5.8,0,10.7,2,13.2,9.4h3.3v-1.4c0-3.9,2.9-7.1,7.6-7.1s7.6,3.2,7.6,7.1V30v14.7v1.9
			c0,11.7,8.1,17.6,21.4,17.6s20.2-7.7,20.2-17.9V20.9c0-3.9,2.9-7.1,7.5-7.1s7.5,3.2,7.5,7.1v28c0,7.5-1,10.1-8.1,11.1v2.9h20.6V60
			c-7.6-1-8.6-3.7-8.6-11.1V22.3h0.3l31.8,42h5.2V24.7c0-7.4,0.6-10,7.6-11v-2.9h-20.8L186.9,10.7L186.9,10.7z"/>
		<path class="st0" d="M29.2,59.3c-8.4,0-17.1-7.6-17.1-23.4c0-15.4,7.2-23.3,15.4-23.3c7,0,12.2,5.8,15.4,15.5h3.6V9.2h-3.2
			L41,12.6c-3.3-1.8-8.2-3.4-13.3-3.4C12,9.2,0,21.1,0,37.3c0,15.8,9.7,27.1,26.3,27.1c11.4,0,18.6-6.3,22.3-15l-3-1.4
			C41.8,55.5,36.6,59.3,29.2,59.3z"/>
	</g>
</g>
<g>
	<g>
		<path class="st0" d="M208.9,60.7c0-2.3,1.7-4,4-4s4,1.7,4,4s-1.7,4-4,4C210.6,64.8,208.9,63,208.9,60.7z M216.3,60.7
			c0-2.1-1.3-3.5-3.4-3.5c-2,0-3.4,1.4-3.4,3.5s1.4,3.5,3.4,3.5C215,64.3,216.3,62.8,216.3,60.7z M212.3,62.3h0.7v0.4h-2v-0.4h0.7
			V59H211v-0.4h2.1c1.2,0,1.6,0.6,1.6,1.1c0,0.4-0.3,0.9-1.2,1v0.1c0.7,0.1,0.9,0.4,1,0.9v0.4c0,0.2,0.1,0.3,0.2,0.3
			s0.2-0.1,0.3-0.3l0.3,0.1c-0.1,0.4-0.4,0.7-0.8,0.7c-0.5,0-0.7-0.2-0.8-0.9v-0.4c0-0.4-0.2-0.7-0.7-0.7h-0.7V62.3z M213,60.5
			c0.6,0,0.9-0.3,0.9-0.8s-0.3-0.7-0.8-0.7h-0.7v1.5H213z"/>
	</g>
</g>
</svg>
