<?xml version="1.0" encoding="utf-8"?>
<!-- Generator: Adobe Illustrator 22.0.1, SVG Export Plug-In . SVG Version: 6.00 Build 0)  -->
<svg version="1.1" id="Layer_1" xmlns="http://www.w3.org/2000/svg" xmlns:xlink="http://www.w3.org/1999/xlink" x="0px" y="0px"
	 viewBox="0 0 978.5 325.6" style="enable-background:new 0 0 978.5 325.6;" xml:space="preserve">
<style type="text/css">
	.st0{fill:#FFFFFF;}
</style>
<g>
	<path class="st0" d="M241.4,280.5c0,9.3-7.8,16.7-17.9,16.7c-6.2,0-11.3-3.5-15.6-8.6L41.8,79.3v203.9c0,7.8-6.6,14-15.2,14
		c-8.6,0-14.8-6.2-14.8-14V41.6c0-8.9,7.8-16.7,17.5-16.7c6.2,0,11.3,3.1,15.6,8.6l166.5,209.3V39.2c0-7.8,6.6-14.4,15.2-14.4
		c8.2,0,14.8,6.6,14.8,14.4V280.5z"/>
	<path class="st0" d="M427.4,297.2c-75.9,0-138.5-59.1-138.5-135.8c0-77,62.6-136.6,138.5-136.6s138.5,59.5,138.5,136.6
		C565.9,238.4,503.2,297.2,427.4,297.2z M427.4,54c-59.5,0-105.4,48.6-105.4,107.4c0,59.1,45.9,107,105.4,107
		c59.5,0,105.8-48.2,105.8-107C533.2,102.6,486.9,54,427.4,54z"/>
	<path class="st0" d="M632.4,24.8c8.2,0,13.6,4.3,17.1,10.1L746,194.1l96.5-159.1c3.5-5.8,9.3-10.1,17.1-10.1
		c11.7,0,19.1,8.6,19.1,19.1v238.5c0,8.2-5.8,14.8-14.8,14.8c-9.3,0-15.2-6.6-15.2-14.8v-200L761.2,224c-3.1,5.1-7.8,9.7-15.2,9.7
		c-7.4,0-12.1-4.7-15.2-9.7L643.3,82.4v200c0,8.2-5.8,14.8-14.8,14.8c-9.3,0-15.2-6.6-15.2-14.8V43.9
		C613.3,33.4,620.7,24.8,632.4,24.8z"/>
	<path class="st0" d="M937,40c0-8.2,7-15.2,15.6-15.2c8.6,0,15.6,7,15.6,15.2v242c0,8.2-7,15.2-15.6,15.2c-8.6,0-15.6-7-15.6-15.2
		V40z"/>
</g>
</svg>
