<?xml version="1.0" encoding="utf-8"?>
<!-- Generator: Adobe Illustrator 22.1.0, SVG Export Plug-In . SVG Version: 6.00 Build 0)  -->
<svg version="1.1" xmlns="http://www.w3.org/2000/svg" xmlns:xlink="http://www.w3.org/1999/xlink" x="0px" y="0px"
	 viewBox="0 0 372.6 148.4" style="enable-background:new 0 0 372.6 148.4;" xml:space="preserve">
<style type="text/css">
	.st0{display:none;}
	.st1{display:inline;stroke:#000000;stroke-miterlimit:10;}
	.st2{fill:#101922;}
	.st3{fill:#DF293A;}
	.st4{fill:#4F9DA3;}
	.st5{fill:#F4F4F5;}
	.st6{fill:#231F20;}
	.st7{font-family:'HouschkaRounded-DemiBold';}
	.st8{font-size:80.1686px;}
	.st9{letter-spacing:1;}
	.st10{font-family:'Museo-700';}
	.st11{font-size:11.7895px;}
	.st12{fill:#D09865;}
	.st13{fill:#B4835E;}
	.st14{fill:#B52132;}
	.st15{fill:#D02232;}
</style>
<g id="Layer_2" class="st0">
	<rect y="-7.2" class="st1" width="330.5" height="142.3"/>
</g>
<g id="Layer_1">
	<title>nomi-logo</title>
	<path class="st2" d="M48.1,39.1l15.4-15.3c4.3-4.3,11.2-4.3,15.5,0l43.4,43.9c4.3,4.3,4.2,11.3-0.1,15.5l-57.2,56.7
		c-4.3,4.3-11.3,4.2-15.5-0.1l-6.6-6.7"/>
	<path class="st3" d="M31.6,32.1l8.8-18.6c2.4-4.9,8.3-7,13.3-4.7l57.6,27.3c4.9,2.4,7.1,8.3,4.7,13.3l-25.6,54"/>
	<path class="st2" d="M92,104.2l-3.3-1.6l25.6-54c1.9-4.1,0.2-8.9-3.9-10.8L52.8,10.5c-4.1-1.9-8.9-0.2-10.8,3.9l-8.8,18.5l-3.3-1.5
		l8.8-18.5c2.8-5.9,9.8-8.4,15.7-5.6L112,34.5c5.9,2.8,8.4,9.8,5.6,15.7L92,104.2z"/>
	<path class="st4" d="M81.9,121.3c-1.2,2.4-3.1,4.5-5.5,5.8"/>
	<path class="st2" d="M77.6,129.3l-2.4-4.3c1.9-1.1,3.5-2.7,4.5-4.7l4.4,2.2C82.7,125.3,80.4,127.7,77.6,129.3z"/>
	<path class="st5" d="M69.1,133.1l-41.3,0.6c-5.8,0-13.8,2.1-17.7-1.6c-3.9-3.8-3.7-13.4-3.8-19.2L5.6,52.6c0-3.1-1.8-14.2,2.8-18.8
		s15.4-2.7,18.2-2.8l51.3-0.8c11.7-0.2,11.2,9.5,11.4,21.2l0.8,60.1c0.1,5.8,1.2,15.2-2.6,19.1C83.6,134.6,74.9,133,69.1,133.1z"/>
	<path class="st2" d="M10.8,134.6c-3.7-1.7-6-5.4-6.1-9.4l-1.2-85C3.5,34.3,8.2,29.5,14,29.4l66.1-0.9C86,28.5,90.8,33.1,90.9,39
		l1.2,85c0.1,5.8-4.6,10.6-10.4,10.7l-66.1,0.9C13.9,135.6,12.3,135.3,10.8,134.6z M83.2,32.8c-1-0.5-2-0.7-3.1-0.7l-66.1,0.9
		c-3.9,0.1-6.9,3.2-6.9,7.1l1.2,85c0.1,3.8,3.2,6.9,7.1,6.9l66.1-0.9c3.9-0.1,6.9-3.2,6.9-7.1l-1.2-85C87.2,36.4,85.7,34,83.2,32.8z
		"/>
	<text transform="matrix(1 0 0 1 149.2471 96.67)" class="st6 st7 st8 st9">NOMI</text>
	<text transform="matrix(1 0 0 1 145.4258 124.0587)" class="st6 st10 st11">NAMES OF M</text>
	<text transform="matrix(1 0 0 1 225.1357 124.0587)" class="st6 st10 st11">AT</text>
	<text transform="matrix(1 0 0 1 240.166 124.0587)" class="st6 st10 st11">ADOR </text>
	<text transform="matrix(1 0 0 1 280.0156 124.0587)" class="st6 st10 st11 st9">INDIVID</text>
	<text transform="matrix(1 0 0 1 334.3662 124.0587)" class="st6 st10 st11">U</text>
	<text transform="matrix(1 0 0 1 344.0312 124.0587)" class="st6 st10 st11 st9">ALS</text>
	<ellipse class="st12" cx="47.8" cy="91.9" rx="26.5" ry="23.9"/>
	<path class="st6" d="M47.8,117.3c-15.4,0-28-11.4-28-25.4s12.5-25.4,28-25.4s28,11.4,28,25.4S63.2,117.3,47.8,117.3z M47.8,69.4
		c-13.8,0-25.1,10.1-25.1,22.5s11.3,22.5,25.1,22.5s25.1-10.1,25.1-22.5S61.6,69.4,47.8,69.4z"/>
	<circle class="st6" cx="37" cy="100.9" r="3.2"/>
	<circle class="st6" cx="58.6" cy="100.9" r="3.2"/>
	<path class="st13" d="M72.4,90.8c0,0,0-0.1,0-0.1v-0.5c0-0.7,0-1.4-0.1-2.1c0-0.7-0.1-1.5-0.2-2.2c-0.4-3.8-0.7-7.7-0.7-11.5
		c0-0.1,0-0.2,0-0.4c-2.7-1-5.6-1.4-8.4-1.1c-0.3,0-0.6-0.1-0.8-0.2c-8.3-5.9-19.4-6.1-27.9-0.5c-0.2,0.1-0.5,0.2-0.8,0.2
		c-2.7-0.4-5.5-0.1-8,1c-1.3,2-2.3,4.3-2.8,6.6c-0.7,2.9,0.4,5,0,8.8c0,0.2,0,0.5,0,0.7l0.5,0.1c1.9,0.3,3.7,0.7,5.6,1
		c0.2,0,0.3,0.1,0.5,0.2c8.3,6,20.4,5.3,29.7,2.5c1.9-0.6,3.7-1.2,5.4-2c0.5-0.2,1-0.4,1.5-0.5c0.6,0,1.2,0,1.7,0.1
		c0.8,0.1,1.7,0.2,2.5,0.3c0.4,0,0.8,0,1.3,0h0.7C72.4,91.1,72.4,91,72.4,90.8z"/>
	<path class="st14" d="M16.3,84.7L16.3,84.7c1.8,0.5,3.7,0.9,5.5,1c2,0.3,3.9,0.7,5.9,1.1c0.2,0,0.4,0.1,0.5,0.2
		c8.6,6.4,21.4,5.6,31.1,2.6c1.9-0.6,3.8-1.3,5.7-2.2c0.5-0.2,1-0.4,1.5-0.5c0.6-0.1,1.2,0,1.8,0.1c2.2,0.4,4.5,0.4,6.7,0.2
		c1.2-0.1,2.5-0.3,3.6-0.8c1.4-0.6,2.5-1.9,2.7-3.4c0-0.1,0-0.2,0-0.2c-0.1-1.5-1.6-16.1-17.9-14.7c-0.3,0-0.6,0-0.8-0.2
		c-2.2-1.6-14.5-9.8-29.2-0.5c-0.2,0.2-0.5,0.2-0.8,0.2c-8.8-1.2-17,4.9-18.4,13.6c-0.1,0.6-0.1,1.2,0.1,1.7
		C14.7,83.8,15.4,84.4,16.3,84.7z"/>
	<path class="st15" d="M16.3,79.9L16.3,79.9c1.8,0.5,3.7,0.8,5.5,1c2,0.3,3.9,0.7,5.9,1c0.2,0,0.4,0.1,0.5,0.2
		c8.6,6,21.4,5.3,31.1,2.5c1.9-0.6,3.8-1.2,5.7-2c0.5-0.2,1-0.4,1.5-0.4c0.6,0,1.2,0,1.8,0.1c2.2,0.3,4.5,0.4,6.7,0.2
		c1.2-0.1,2.5-0.3,3.6-0.8c1.4-0.5,2.5-1.7,2.7-3.2c0-0.1,0-0.2,0-0.2c-0.1-1.4-1.7-15.2-17.9-13.9c-0.3,0-0.6,0-0.8-0.2
		c-8.8-6-20.3-6.2-29.2-0.5c-0.2,0.1-0.5,0.2-0.8,0.2c-8.7-1.2-17.1,4.7-18.4,13c-0.1,0.5-0.1,1.1,0.1,1.6
		C14.7,79.1,15.5,79.7,16.3,79.9z"/>
	<path class="st6" d="M45,93.3c-5.8,0-12.2-1.3-17.5-5.7c-1-0.2-1.9-0.4-2.9-0.6c-0.9-0.2-2-0.4-2.9-0.6c-0.5-0.1-0.9-0.1-1.4-0.2
		c-1.5-0.2-3-0.5-4.4-1h-0.1c-1.3-0.5-2.3-1.5-2.8-2.8c-0.3-0.8-0.3-1.7-0.2-2.6c0.7-5.3,3.5-10.1,7.8-13.3
		c3.5-2.6,7.9-3.8,12.2-3.1c15.3-10.6,28.1-1.6,30.8,0.6c5.2-0.4,9.5,0.8,12.8,3.5c5.6,4.8,6.4,12.6,6.6,14.1c0,0.2,0,0.3,0,0.5
		c-0.3,2.1-1.6,4-3.5,4.9c-1.3,0.6-2.7,1-4.2,1.1c-2.4,0.2-4.7,0.1-7.1-0.3H68c-0.4-0.1-0.8-0.1-1.2-0.1c-0.3,0.1-0.7,0.2-1,0.4
		h-0.1c-1.9,1-3.9,1.8-5.9,2.5C55,92.4,50,93.2,45,93.3z M16.9,82.6c1.2,0.4,2.5,0.7,3.7,0.9l1.5,0.2c1,0.2,2,0.4,3,0.6
		s1.9,0.4,2.9,0.6c0.4,0.1,0.8,0.3,1.2,0.6c10.2,8.4,25.3,4.2,29.7,2.6c1.9-0.7,3.7-1.5,5.5-2.4c0.6-0.3,1.2-0.6,1.9-0.7
		c0.7-0.1,1.4-0.1,2.1,0.1h0.1c2.1,0.4,4.2,0.5,6.3,0.3c1.1-0.1,2.1-0.3,3.1-0.8c1-0.5,1.8-1.4,2-2.6c-0.1-0.8-0.7-8-5.6-12.2
		c-2.7-2.4-6.4-3.3-10.8-2.9c-0.7,0.1-1.3-0.1-1.9-0.6c-2.2-1.8-13.6-10.2-27.5-0.5c-0.5,0.4-1.2,0.5-1.9,0.4
		c-3.6-0.6-7.3,0.4-10.2,2.6c-3.6,2.7-6,6.8-6.6,11.4c-0.1,0.4-0.1,0.8,0,1.3C15.9,82,16.3,82.4,16.9,82.6L16.9,82.6z"/>
</g>
</svg>
