<?xml version="1.0" encoding="utf-8"?>
<!-- Generator: Adobe Illustrator 22.1.0, SVG Export Plug-In . SVG Version: 6.00 Build 0)  -->
<svg version="1.1" id="Layer_1" xmlns="http://www.w3.org/2000/svg" xmlns:xlink="http://www.w3.org/1999/xlink" x="0px" y="0px"
	 viewBox="0 0 372.6 148.4" style="enable-background:new 0 0 372.6 148.4;" xml:space="preserve">
<style type="text/css">
	.st0{display:none;}
	.st1{display:inline;stroke:#000000;stroke-miterlimit:10;}
	.st2{fill:#101922;}
	.st3{fill:#DF293A;}
	.st4{fill:#4F9DA3;}
	.st5{fill:#F4F4F5;}
	.st6{enable-background:new    ;}
	.st7{fill:#231F20;}
	.st8{fill:#D09865;}
	.st9{fill:#B4835E;}
	.st10{fill:#B52132;}
	.st11{fill:#D02232;}
</style>
<g id="Layer_2_1_" class="st0">
	<rect y="-7.2" class="st1" width="330.5" height="142.3"/>
</g>
<title>nomi-logo</title>
<path class="st2" d="M48.1,39.1l15.4-15.3c4.3-4.3,11.2-4.3,15.5,0l43.4,43.9c4.3,4.3,4.2,11.3-0.1,15.5l-57.2,56.7
	c-4.3,4.3-11.3,4.2-15.5-0.1l-6.6-6.7"/>
<path class="st3" d="M31.6,32.1l8.8-18.6c2.4-4.9,8.3-7,13.3-4.7l57.6,27.3c4.9,2.4,7.1,8.3,4.7,13.3l-25.6,54"/>
<path class="st2" d="M92,104.2l-3.3-1.6l25.6-54c1.9-4.1,0.2-8.9-3.9-10.8L52.8,10.5c-4.1-1.9-8.9-0.2-10.8,3.9l-8.8,18.5l-3.3-1.5
	l8.8-18.5c2.8-5.9,9.8-8.4,15.7-5.6L112,34.5c5.9,2.8,8.4,9.8,5.6,15.7L92,104.2z"/>
<path class="st4" d="M81.9,121.3c-1.2,2.4-3.1,4.5-5.5,5.8"/>
<path class="st2" d="M77.6,129.3l-2.4-4.3c1.9-1.1,3.5-2.7,4.5-4.7l4.4,2.2C82.7,125.3,80.4,127.7,77.6,129.3z"/>
<path class="st5" d="M69.1,133.1l-41.3,0.6c-5.8,0-13.8,2.1-17.7-1.6c-3.9-3.8-3.7-13.4-3.8-19.2L5.6,52.6c0-3.1-1.8-14.2,2.8-18.8
	s15.4-2.7,18.2-2.8l51.3-0.8c11.7-0.2,11.2,9.5,11.4,21.2l0.8,60.1c0.1,5.8,1.2,15.2-2.6,19.1C83.6,134.6,74.9,133,69.1,133.1z"/>
<path class="st2" d="M10.8,134.6c-3.7-1.7-6-5.4-6.1-9.4l-1.2-85c0-5.9,4.7-10.7,10.5-10.8l66.1-0.9c5.9,0,10.7,4.6,10.8,10.5
	l1.2,85c0.1,5.8-4.6,10.6-10.4,10.7l-66.1,0.9C13.9,135.6,12.3,135.3,10.8,134.6z M83.2,32.8c-1-0.5-2-0.7-3.1-0.7L14,33
	c-3.9,0.1-6.9,3.2-6.9,7.1l1.2,85c0.1,3.8,3.2,6.9,7.1,6.9l66.1-0.9c3.9-0.1,6.9-3.2,6.9-7.1l-1.2-85C87.2,36.4,85.7,34,83.2,32.8z"
	/>
<g class="st6">
	<path class="st7" d="M193,92.6c0,2.8-2.3,4.9-5.1,4.9c-1.8,0-3.4-0.9-4.5-2.3l-29.8-38.2v36.5c0,2.2-1.9,4.1-4.2,4.1
		c-2.4,0-4.3-1.8-4.3-4.1V46.2c0-2.7,2.2-4.9,5.1-4.9c1.8,0,3.3,1,4.4,2.4l29.9,38.2V45.4c0-2.2,1.8-4.1,4.2-4.1s4.3,1.8,4.3,4.1
		V92.6z"/>
	<path class="st7" d="M232.1,97.5c-15.7,0-28.9-11.8-28.9-28c0-16.3,13.1-28.1,28.9-28.1c15.6,0,28.9,11.9,28.9,28.1
		S247.7,97.5,232.1,97.5z M232.1,49.8c-11,0-19.4,8.7-19.4,19.7s8.4,19.6,19.4,19.6c11.1,0,19.3-8.7,19.3-19.6
		S243.1,49.8,232.1,49.8z"/>
	<path class="st7" d="M276.7,41.4c2.2,0,3.9,1.1,4.9,2.8l17.2,29.1l17.4-29.1c1-1.7,2.6-2.8,4.9-2.8c3.4,0,5.6,2.5,5.6,5.5v46.5
		c0,2.2-1.8,4.2-4.4,4.2c-2.6,0-4.3-1.9-4.3-4.2V57.6l-14.7,24.3c-0.9,1.5-2.2,2.7-4.4,2.7c-2.2,0-3.5-1.2-4.4-2.7l-14.7-24.3v35.7
		c0,2.2-1.8,4.2-4.4,4.2c-2.6,0-4.3-1.9-4.3-4.2V46.8C271.1,43.8,273.4,41.4,276.7,41.4z"/>
	<path class="st7" d="M339.2,45.7c0-2.4,2-4.3,4.5-4.3c2.6,0,4.5,1.9,4.5,4.3v47.5c0,2.4-2.1,4.3-4.5,4.3c-2.5,0-4.5-1.9-4.5-4.3
		V45.7z"/>
</g>
<g class="st6">
	<path class="st7" d="M145.3,122.9h0.5c0.2,0,0.3-0.1,0.3-0.3v-6.9h1.4l3.2,4.7c0.3,0.5,0.7,1.2,0.7,1.2h0c0,0-0.1-0.7-0.1-1.2v-3.9
		c0-0.6,0.2-0.8,0.8-0.8h1.5v1.3h-0.5c-0.2,0-0.3,0.1-0.3,0.3v6.9h-1.4l-3.2-4.7c-0.3-0.5-0.7-1.2-0.7-1.2h0c0,0,0.1,0.7,0.1,1.2
		v3.9c0,0.6-0.2,0.8-0.8,0.8h-1.5V122.9z"/>
	<path class="st7" d="M154.2,122.9h0.2c0.2,0,0.3,0,0.4-0.3l2.5-6.9h1.6l2.5,6.9c0.1,0.2,0.2,0.3,0.4,0.3h0.2v1.3h-0.9
		c-0.6,0-0.8-0.2-1-0.7l-0.5-1.5h-2.9l-0.5,1.5c-0.2,0.5-0.4,0.7-1,0.7h-0.9V122.9z M159.2,120.7l-0.7-2.1c-0.2-0.5-0.3-1.3-0.3-1.3
		h0c0,0-0.2,0.8-0.3,1.3l-0.7,2.1H159.2z"/>
	<path class="st7" d="M162.4,122.9h0.4c0.2,0,0.2-0.1,0.3-0.3l0.5-6.9h1.6l1.7,4c0.2,0.5,0.4,1.1,0.4,1.1h0c0,0,0.2-0.6,0.4-1.1
		l1.7-4h1.6l0.5,6.9c0,0.2,0.1,0.3,0.3,0.3h0.4v1.3h-1.3c-0.6,0-0.8-0.2-0.8-0.8l-0.3-3.8c0-0.6,0-1.3,0-1.3h0c0,0-0.3,0.8-0.5,1.3
		l-1.4,3.1h-1.3l-1.4-3.1c-0.2-0.5-0.5-1.3-0.5-1.3h0c0,0,0,0.8,0,1.3l-0.3,3.8c0,0.6-0.3,0.8-0.8,0.8h-1.3V122.9z"/>
	<path class="st7" d="M173.7,117h-0.8v-1.3h5.1c0.6,0,0.8,0.2,0.8,0.8v1.3h-1.4v-0.5c0-0.2-0.1-0.3-0.3-0.3h-1.9v2.2h2.7v1.3h-2.7v2
		c0,0.2,0.1,0.3,0.3,0.3h2c0.2,0,0.3-0.1,0.3-0.3v-0.5h1.4v1.3c0,0.6-0.2,0.8-0.8,0.8h-3.8c-0.6,0-0.8-0.2-0.8-0.8V117z"/>
	<path class="st7" d="M180.6,121.9c0,0,0.9,1,2,1c0.6,0,1.2-0.3,1.2-1c0-1.4-4-1.3-4-4c0-1.4,1.2-2.4,2.8-2.4c1,0,2.5,0.5,2.5,1.7
		v0.8h-1.4v-0.4c0-0.4-0.6-0.7-1.1-0.7c-0.7,0-1.2,0.4-1.2,0.9c0,1.4,4,1.2,4,3.9c0,1.3-1,2.5-2.8,2.5c-1.9,0-2.9-1.3-2.9-1.3
		L180.6,121.9z"/>
	<path class="st7" d="M193.8,115.6c2.5,0,4.4,1.9,4.4,4.3c0,2.5-1.9,4.4-4.4,4.4c-2.5,0-4.4-1.9-4.4-4.4
		C189.4,117.5,191.3,115.6,193.8,115.6z M193.8,122.9c1.5,0,2.8-1.3,2.8-3c0-1.6-1.2-2.9-2.8-2.9s-2.8,1.2-2.8,2.9
		C191.1,121.6,192.3,122.9,193.8,122.9z"/>
	<path class="st7" d="M199.7,117h-0.8v-1.3h4.8c0.6,0,0.8,0.2,0.8,0.8v1.3h-1.4v-0.5c0-0.2-0.1-0.3-0.3-0.3h-1.6v2.4h2.7v1.3h-2.7
		v3.4h-1.6V117z"/>
	<path class="st7" d="M208.2,122.9h0.4c0.2,0,0.2-0.1,0.3-0.3l0.5-6.9h1.6l1.7,4c0.2,0.5,0.4,1.1,0.4,1.1h0c0,0,0.2-0.6,0.4-1.1
		l1.7-4h1.6l0.5,6.9c0,0.2,0.1,0.3,0.3,0.3h0.4v1.3h-1.3c-0.6,0-0.8-0.2-0.8-0.8l-0.3-3.8c0-0.6,0-1.3,0-1.3h0c0,0-0.2,0.8-0.5,1.3
		l-1.4,3.1h-1.3l-1.4-3.1c-0.2-0.5-0.5-1.3-0.5-1.3h0c0,0,0,0.8,0,1.3l-0.3,3.8c0,0.6-0.2,0.8-0.8,0.8h-1.3V122.9z"/>
	<path class="st7" d="M218.4,122.9h0.2c0.2,0,0.3,0,0.4-0.3l2.5-6.9h1.6l2.5,6.9c0.1,0.2,0.2,0.3,0.4,0.3h0.2v1.3h-0.9
		c-0.6,0-0.8-0.2-1-0.7l-0.5-1.5h-2.9l-0.5,1.5c-0.2,0.5-0.4,0.7-1,0.7h-0.9V122.9z M223.4,120.7l-0.7-2.1c-0.2-0.5-0.3-1.3-0.3-1.3
		h0c0,0-0.2,0.8-0.3,1.3l-0.7,2.1H223.4z"/>
	<path class="st7" d="M228.4,117h-1.3c-0.2,0-0.3,0.1-0.3,0.3v0.5h-1.4v-1.3c0-0.6,0.2-0.8,0.8-0.8h5.9c0.6,0,0.8,0.2,0.8,0.8v1.3
		h-1.4v-0.5c0-0.2-0.1-0.3-0.3-0.3H230v7.1h-1.6V117z"/>
	<path class="st7" d="M232.2,122.9h0.2c0.2,0,0.3,0,0.4-0.3l2.5-6.9h1.6l2.5,6.9c0.1,0.2,0.2,0.3,0.4,0.3h0.2v1.3H239
		c-0.6,0-0.8-0.2-1-0.7l-0.5-1.5h-2.9l-0.5,1.5c-0.2,0.5-0.4,0.7-1,0.7h-0.9V122.9z M237.2,120.7l-0.7-2.1c-0.2-0.5-0.3-1.3-0.3-1.3
		h0c0,0-0.2,0.8-0.3,1.3l-0.7,2.1H237.2z"/>
	<path class="st7" d="M241.3,117h-0.8v-1.3h3.4c2.6,0,4.3,1.5,4.3,4.2c0,2.7-1.7,4.2-4.3,4.2h-1.9c-0.6,0-0.8-0.2-0.8-0.8V117z
		 M243.1,122.9h0.8c1.7,0,2.8-1,2.8-2.9c0-1.9-1.1-2.9-2.8-2.9h-1v5.6C242.8,122.8,242.9,122.9,243.1,122.9z"/>
	<path class="st7" d="M253.3,115.6c2.5,0,4.4,1.9,4.4,4.3c0,2.5-1.9,4.4-4.4,4.4c-2.5,0-4.4-1.9-4.4-4.4
		C249,117.5,250.9,115.6,253.3,115.6z M253.3,122.9c1.5,0,2.8-1.3,2.8-3c0-1.6-1.2-2.9-2.8-2.9s-2.8,1.2-2.8,2.9
		C250.6,121.6,251.8,122.9,253.3,122.9z"/>
	<path class="st7" d="M259.3,117h-0.8v-1.3h3.8c1.5,0,2.6,1,2.6,2.5c0,1.5-1,2.2-1.4,2.2v0c0,0,0.3,0.1,0.4,0.4l0.8,1.6
		c0.1,0.2,0.3,0.3,0.6,0.3h0.2v1.3h-0.8c-0.6,0-0.9-0.1-1.2-0.6l-1.1-2.1c-0.2-0.3-0.4-0.4-0.8-0.4h-0.8v3.2h-1.6V117z M262.1,119.7
		c0.8,0,1.3-0.5,1.3-1.3c0-0.8-0.5-1.3-1.2-1.3h-1.3v2.6H262.1z"/>
	<path class="st7" d="M269.2,122.9h0.8V117h-0.8v-1.3h3.2v1.3h-0.8v5.8h0.8v1.3h-3.2V122.9z"/>
	<path class="st7" d="M273.2,122.9h0.5c0.2,0,0.3-0.1,0.3-0.3v-6.9h1.4l3.2,4.7c0.3,0.5,0.7,1.2,0.7,1.2h0c0,0-0.1-0.7-0.1-1.2v-3.9
		c0-0.6,0.2-0.8,0.8-0.8h1.5v1.3h-0.5c-0.2,0-0.3,0.1-0.3,0.3v6.9h-1.4l-3.2-4.7c-0.3-0.5-0.7-1.2-0.7-1.2h0c0,0,0.1,0.7,0.1,1.2
		v3.9c0,0.6-0.2,0.8-0.8,0.8h-1.5V122.9z"/>
	<path class="st7" d="M283.2,117h-0.8v-1.3h3.4c2.6,0,4.3,1.5,4.3,4.2c0,2.7-1.7,4.2-4.3,4.2H284c-0.6,0-0.8-0.2-0.8-0.8V117z
		 M285,122.9h0.8c1.7,0,2.8-1,2.8-2.9c0-1.9-1.1-2.9-2.8-2.9h-1v5.6C284.7,122.8,284.8,122.9,285,122.9z"/>
	<path class="st7" d="M291,122.9h0.8V117H291v-1.3h3.2v1.3h-0.8v5.8h0.8v1.3H291V122.9z"/>
	<path class="st7" d="M295.3,117.3c-0.1-0.2-0.2-0.3-0.4-0.3h-0.2v-1.3h1c0.6,0,0.8,0.2,1,0.7l1.6,4.7c0.2,0.5,0.3,1.2,0.3,1.2h0
		c0,0,0.2-0.8,0.3-1.2l1.6-4.7c0.2-0.5,0.4-0.7,1-0.7h1v1.3h-0.2c-0.2,0-0.3,0.1-0.4,0.3l-2.5,6.9h-1.6L295.3,117.3z"/>
	<path class="st7" d="M303.2,122.9h0.8V117h-0.8v-1.3h3.2v1.3h-0.8v5.8h0.8v1.3h-3.2V122.9z"/>
	<path class="st7" d="M308,117h-0.8v-1.3h3.4c2.6,0,4.3,1.5,4.3,4.2c0,2.7-1.7,4.2-4.3,4.2h-1.9c-0.6,0-0.8-0.2-0.8-0.8V117z
		 M309.8,122.9h0.8c1.7,0,2.8-1,2.8-2.9c0-1.9-1.1-2.9-2.8-2.9h-1v5.6C309.5,122.8,309.6,122.9,309.8,122.9z"/>
	<path class="st7" d="M316.4,117.3c0-0.2-0.1-0.3-0.3-0.3h-0.5v-1.3h1.5c0.6,0,0.8,0.2,0.8,0.8v4.6c0,1.1,0.7,1.8,1.8,1.8
		s1.8-0.6,1.8-1.8v-4.6c0-0.6,0.2-0.8,0.8-0.8h1.5v1.3h-0.5c-0.2,0-0.3,0.1-0.3,0.3v3.9c0,1.9-1.3,3.2-3.3,3.2c-2,0-3.3-1.3-3.3-3.2
		V117.3z"/>
	<path class="st7" d="M324,122.9h0.2c0.2,0,0.3,0,0.4-0.3l2.5-6.9h1.6l2.5,6.9c0.1,0.2,0.2,0.3,0.4,0.3h0.2v1.3h-0.9
		c-0.6,0-0.8-0.2-1-0.7l-0.5-1.5h-2.9l-0.5,1.5c-0.2,0.5-0.4,0.7-1,0.7H324V122.9z M329,120.7l-0.7-2.1c-0.2-0.5-0.3-1.3-0.3-1.3h0
		c0,0-0.2,0.8-0.3,1.3l-0.7,2.1H329z"/>
	<path class="st7" d="M333.1,117.3c0-0.2-0.1-0.3-0.3-0.3h-0.5v-1.3h1.5c0.6,0,0.8,0.2,0.8,0.8v6.1c0,0.2,0.1,0.3,0.3,0.3h1.8
		c0.2,0,0.3-0.1,0.3-0.3v-0.5h1.4v1.3c0,0.6-0.2,0.8-0.8,0.8h-3.7c-0.6,0-0.8-0.2-0.8-0.8V117.3z"/>
	<path class="st7" d="M339.8,121.9c0,0,0.9,1,2,1c0.6,0,1.2-0.3,1.2-1c0-1.4-4-1.3-4-4c0-1.4,1.2-2.4,2.8-2.4c1,0,2.5,0.5,2.5,1.7
		v0.8h-1.4v-0.4c0-0.4-0.6-0.7-1.1-0.7c-0.7,0-1.2,0.4-1.2,0.9c0,1.4,4,1.2,4,3.9c0,1.3-1,2.5-2.8,2.5c-1.9,0-2.9-1.3-2.9-1.3
		L339.8,121.9z"/>
</g>
<ellipse class="st8" cx="47.8" cy="91.9" rx="26.5" ry="23.9"/>
<path class="st7" d="M47.8,117.3c-15.4,0-28-11.4-28-25.4s12.5-25.4,28-25.4s28,11.4,28,25.4S63.2,117.3,47.8,117.3z M47.8,69.4
	c-13.8,0-25.1,10.1-25.1,22.5s11.3,22.5,25.1,22.5s25.1-10.1,25.1-22.5S61.6,69.4,47.8,69.4z"/>
<circle class="st7" cx="37" cy="100.9" r="3.2"/>
<circle class="st7" cx="58.6" cy="100.9" r="3.2"/>
<path class="st9" d="M72.4,90.8L72.4,90.8v-0.6c0-0.7,0-1.4-0.1-2.1c0-0.7-0.1-1.5-0.2-2.2c-0.4-3.8-0.7-7.7-0.7-11.5
	c0-0.1,0-0.2,0-0.4c-2.7-1-5.6-1.4-8.4-1.1c-0.3,0-0.6-0.1-0.8-0.2c-8.3-5.9-19.4-6.1-27.9-0.5c-0.2,0.1-0.5,0.2-0.8,0.2
	c-2.7-0.4-5.5-0.1-8,1c-1.3,2-2.3,4.3-2.8,6.6c-0.7,2.9,0.4,5,0,8.8c0,0.2,0,0.5,0,0.7l0.5,0.1c1.9,0.3,3.7,0.7,5.6,1
	c0.2,0,0.3,0.1,0.5,0.2c8.3,6,20.4,5.3,29.7,2.5c1.9-0.6,3.7-1.2,5.4-2c0.5-0.2,1-0.4,1.5-0.5c0.6,0,1.2,0,1.7,0.1
	c0.8,0.1,1.7,0.2,2.5,0.3c0.4,0,0.8,0,1.3,0h0.7C72.4,91.1,72.4,91,72.4,90.8z"/>
<path class="st10" d="M16.3,84.7L16.3,84.7c1.8,0.5,3.7,0.9,5.5,1c2,0.3,3.9,0.7,5.9,1.1c0.2,0,0.4,0.1,0.5,0.2
	c8.6,6.4,21.4,5.6,31.1,2.6c1.9-0.6,3.8-1.3,5.7-2.2c0.5-0.2,1-0.4,1.5-0.5c0.6-0.1,1.2,0,1.8,0.1c2.2,0.4,4.5,0.4,6.7,0.2
	c1.2-0.1,2.5-0.3,3.6-0.8c1.4-0.6,2.5-1.9,2.7-3.4c0-0.1,0-0.2,0-0.2c-0.1-1.5-1.6-16.1-17.9-14.7c-0.3,0-0.6,0-0.8-0.2
	c-2.2-1.6-14.5-9.8-29.2-0.5c-0.2,0.2-0.5,0.2-0.8,0.2c-8.8-1.2-17,4.9-18.4,13.6c-0.1,0.6-0.1,1.2,0.1,1.7
	C14.7,83.8,15.4,84.4,16.3,84.7z"/>
<path class="st11" d="M16.3,79.9L16.3,79.9c1.8,0.5,3.7,0.8,5.5,1c2,0.3,3.9,0.7,5.9,1c0.2,0,0.4,0.1,0.5,0.2
	c8.6,6,21.4,5.3,31.1,2.5c1.9-0.6,3.8-1.2,5.7-2c0.5-0.2,1-0.4,1.5-0.4c0.6,0,1.2,0,1.8,0.1c2.2,0.3,4.5,0.4,6.7,0.2
	c1.2-0.1,2.5-0.3,3.6-0.8c1.4-0.5,2.5-1.7,2.7-3.2c0-0.1,0-0.2,0-0.2c-0.1-1.4-1.7-15.2-17.9-13.9c-0.3,0-0.6,0-0.8-0.2
	c-8.8-6-20.3-6.2-29.2-0.5c-0.2,0.1-0.5,0.2-0.8,0.2c-8.7-1.2-17.1,4.7-18.4,13c-0.1,0.5-0.1,1.1,0.1,1.6
	C14.7,79.1,15.5,79.7,16.3,79.9z"/>
<path class="st7" d="M45,93.3c-5.8,0-12.2-1.3-17.5-5.7c-1-0.2-1.9-0.4-2.9-0.6c-0.9-0.2-2-0.4-2.9-0.6c-0.5-0.1-0.9-0.1-1.4-0.2
	c-1.5-0.2-3-0.5-4.4-1h-0.1c-1.3-0.5-2.3-1.5-2.8-2.8c-0.3-0.8-0.3-1.7-0.2-2.6c0.7-5.3,3.5-10.1,7.8-13.3c3.5-2.6,7.9-3.8,12.2-3.1
	c15.3-10.6,28.1-1.6,30.8,0.6c5.2-0.4,9.5,0.8,12.8,3.5c5.6,4.8,6.4,12.6,6.6,14.1c0,0.2,0,0.3,0,0.5c-0.3,2.1-1.6,4-3.5,4.9
	c-1.3,0.6-2.7,1-4.2,1.1c-2.4,0.2-4.7,0.1-7.1-0.3H68c-0.4-0.1-0.8-0.1-1.2-0.1c-0.3,0.1-0.7,0.2-1,0.4h-0.1c-1.9,1-3.9,1.8-5.9,2.5
	C55,92.4,50,93.2,45,93.3z M16.9,82.6c1.2,0.4,2.5,0.7,3.7,0.9l1.5,0.2c1,0.2,2,0.4,3,0.6s1.9,0.4,2.9,0.6c0.4,0.1,0.8,0.3,1.2,0.6
	c10.2,8.4,25.3,4.2,29.7,2.6c1.9-0.7,3.7-1.5,5.5-2.4c0.6-0.3,1.2-0.6,1.9-0.7c0.7-0.1,1.4-0.1,2.1,0.1h0.1c2.1,0.4,4.2,0.5,6.3,0.3
	c1.1-0.1,2.1-0.3,3.1-0.8s1.8-1.4,2-2.6c-0.1-0.8-0.7-8-5.6-12.2c-2.7-2.4-6.4-3.3-10.8-2.9c-0.7,0.1-1.3-0.1-1.9-0.6
	c-2.2-1.8-13.6-10.2-27.5-0.5c-0.5,0.4-1.2,0.5-1.9,0.4c-3.6-0.6-7.3,0.4-10.2,2.6c-3.6,2.7-6,6.8-6.6,11.4c-0.1,0.4-0.1,0.8,0,1.3
	C15.9,82,16.3,82.4,16.9,82.6L16.9,82.6z"/>
</svg>
