<?xml version="1.0" encoding="utf-8"?>
<!-- Generator: Adobe Illustrator 22.1.0, SVG Export Plug-In . SVG Version: 6.00 Build 0)  -->
<svg version="1.1" id="Layer_1" xmlns="http://www.w3.org/2000/svg" xmlns:xlink="http://www.w3.org/1999/xlink" x="0px" y="0px"
	viewBox="0 0 448 512" style="enable-background:new 0 0 448 512;" xml:space="preserve">
<path d="M187.3,395.3l-80,80c-6.2,6.2-16.4,6.2-22.6,0l-80-80C-5.4,385.2,1.8,368,16,368h48V48c0-8.8,7.2-16,16-16h32
	c8.8,0,16,7.2,16,16v320h48C190.2,368,197.3,385.3,187.3,395.3z M329.2,381h13.4l-6.6-22.9L329.2,381z M341.8,167.9l67.5-95.7
	c1.4-2,2.2-4.4,2.2-6.9V44c0-6.6-5.4-12-12-12H274.5c-6.6,0-12,5.4-12,12v28.9c0,6.6,5.4,12,12,12H331c-0.7,1-1.5,2-2.3,3.1
	l-67.2,95.2c-1.4,2-2.2,4.4-2.2,6.9V212c0,6.6,5.4,12,12,12h129.4c6.6,0,12-5.4,12-12v-28.9c0-6.6-5.4-12-12-12h-61.1
	C340.3,170.1,341,169,341.8,167.9L341.8,167.9z M306.3,468.3c-1.5,5.1-6.2,8.7-11.5,8.7H259c-8.2,0-14-8.1-11.4-15.9l57.1-168
	c1.7-4.9,6.2-8.1,11.4-8.1h39.6c5.1,0,9.7,3.3,11.4,8.1l57.1,168c2.6,7.8-3.1,15.9-11.4,15.9h-35.7c-5.3,0-10-3.5-11.5-8.6
	l-8.3-28.3h-42.9L306.3,468.3L306.3,468.3z"/>
</svg>
