<?xml version="1.0" encoding="utf-8"?>
<!-- Generator: Adobe Illustrator 22.0.1, SVG Export Plug-In . SVG Version: 6.00 Build 0)  -->
<svg version="1.1" id="Layer_1" xmlns="http://www.w3.org/2000/svg" xmlns:xlink="http://www.w3.org/1999/xlink" x="0px" y="0px"
	 viewBox="0 0 196.9 175.1" style="enable-background:new 0 0 196.9 175.1;" xml:space="preserve">
<style type="text/css">
	.st0{filter:url(#Adobe_OpacityMaskFilter);}
	.st1{fill:#FFFFFF;}
	.st2{font-family:'MuseoSans-500';}
	.st3{font-size:22px;}
	.st4{fill:none;}
	.st5{fill:#D22030;}
	.st6{font-size:50px;}
	.st7{mask:url(#SVGID_1_);}
</style>
<g>
	<defs>
		<filter id="Adobe_OpacityMaskFilter" filterUnits="userSpaceOnUse" x="26.2" y="15.2" width="144.6" height="144.6">
			
				<feColorMatrix  type="matrix" values="-1 0 0 0 1  0 -1 0 0 1  0 0 -1 0 1  0 0 0 1 0" color-interpolation-filters="sRGB" result="source"/>
		</filter>
	</defs>
	<mask maskUnits="userSpaceOnUse" x="26.2" y="15.2" width="144.6" height="144.6" id="SVGID_1_">
		<g class="st0">
			<g>
				<g>
					<g>
						<g>
							<path d="M6.3-16.1c61.6,0,123.2,0,184.7,0c0,61.2,0,122.3,0,183.5c-0.3,0-0.6,0-0.9,0c-61,0-122,0-183,0c-0.3,0-0.6,0-0.9,0
								c0-0.4,0-0.6,0-0.9c0-51.4,0-102.7,0-154.1C6.3,3,6.3-6.6,6.3-16.1z M50.6,44.5c0,8.2,0,16.3,0,24.5c1.6,0,3.2,0,4.8,0
								c0-4.7,0-9.3,0-13.9c1.5,2.8,3,5.6,4.4,8.4c0.2,0.4,0.4,0.6,0.8,0.5c0.7,0,1.3,0,2,0c0.5,0,0.8-0.1,1-0.6
								c1.3-2.7,2.7-5.4,4-8c0.1-0.1,0.2-0.2,0.3-0.5c0,4.8,0,9.4,0,14.1c1.6,0,3.2,0,4.7,0c0-8.2,0-16.3,0-24.5c-1.4,0-2.7,0-4.1,0
								c-0.5,0-0.7,0.1-0.9,0.6c-1.6,3.4-3.3,6.9-4.9,10.3c-0.4,0.7-0.7,1.5-1.1,2.3c-0.1-0.3-0.2-0.5-0.3-0.7c-1.9-4-3.9-8-5.8-12
								c-0.1-0.2-0.3-0.5-0.5-0.5C53.6,44.5,52.1,44.5,50.6,44.5z M131.5,80.7c0,0.2,0,0.4,0,0.6c0,7.8,0,15.5,0,23.3
								c0,0.5,0.1,0.7,0.7,0.7c3.2,0,6.4,0,9.6,0c1,0,2-0.2,3-0.5c2.6-0.8,4.1-2.7,4.5-5.4c0.4-2.8-0.4-5.1-3-6.6
								c0,0-0.1-0.1-0.1-0.1c4.4-2.6,3.4-9.1-0.4-11c-1.4-0.7-2.8-0.9-4.3-0.9c-3.1,0-6.1,0-9.2,0C131.9,80.7,131.7,80.7,131.5,80.7
								z M98.5,69c0-1.4,0-2.8,0-4.3c-3.8,0-7.5,0-11.3,0c0-2,0-3.9,0-5.9c3.2,0,6.4,0,9.6,0c0-1.5,0-2.9,0-4.3c-3.2,0-6.4,0-9.6,0
								c0-1.9,0-3.8,0-5.7c3.8,0,7.5,0,11.3,0c0-1.5,0-2.9,0-4.2c-5.4,0-10.7,0-16.1,0c0,8.2,0,16.3,0,24.5C87.7,69,93.1,69,98.5,69
								z M125.2,105.2c-0.1-0.2-0.1-0.4-0.2-0.5c-1-2.7-2-5.4-3-8.2c-1.9-5.1-3.7-10.2-5.6-15.3c-0.2-0.4-0.4-0.6-0.8-0.6
								c-0.8,0-1.6,0-2.4,0c-0.5,0-0.8,0.1-1,0.7c-2.4,6.7-4.9,13.5-7.3,20.2c-0.4,1.2-0.9,2.4-1.3,3.7c0.3,0,0.4,0,0.6,0
								c1.3,0,2.6,0,3.9,0c0.5,0,0.6-0.2,0.8-0.6c0.4-1.3,0.8-2.5,1.3-3.8c2.8,0,5.6,0,8.3,0c0.2,0,0.4,0.3,0.4,0.4
								c0.4,1.1,0.8,2.3,1.2,3.5c0.1,0.2,0.3,0.4,0.4,0.4C122,105.2,123.6,105.2,125.2,105.2z M126.9,69c1.7,0,3.2,0,4.7,0
								c0.2,0,0.4-0.2,0.5-0.4c0.4-1.1,0.8-2.3,1.2-3.5c0.1-0.3,0.2-0.4,0.6-0.4c2.6,0,5.2,0,7.8,0c0.4,0,0.5,0.2,0.6,0.5
								c0.3,1,0.7,2,1,3c0.2,0.7,0.5,1,1.3,0.9c1.3-0.1,2.7,0,4.1,0c-0.1-0.2-0.1-0.4-0.2-0.5c-0.8-2.3-1.7-4.6-2.5-6.9
								c-2-5.5-4-11-6-16.5c-0.2-0.5-0.4-0.7-0.9-0.6c-0.8,0-1.6,0.1-2.4,0c-0.6,0-0.8,0.2-1,0.7c-2.4,6.7-4.9,13.4-7.3,20.1
								C127.8,66.5,127.3,67.7,126.9,69z M123.5,44.6c-5.9,0-11.7,0-17.6,0c0,1.4,0,2.8,0,4.3c2.1,0,4.2,0,6.4,0
								c0,6.8,0,13.5,0,20.2c1.6,0,3.2,0,4.8,0c0-6.7,0-13.4,0-20.2c2.2,0,4.2,0,6.3,0C123.5,47.4,123.5,46,123.5,44.6z M98.6,105.2
								c0-1.3,0-2.5,0-3.7c0-0.5-0.2-0.6-0.6-0.6c-3.2,0-6.5,0-9.7,0c-0.2,0-0.5,0-0.8,0c0-6.8,0-13.5,0-20.2c-1.6,0-3.2,0-4.8,0
								c0,8.2,0,16.3,0,24.5C88,105.2,93.2,105.2,98.6,105.2z"/>
							<path class="st1" d="M6.3-16.1c0,9.5,0,19,0,28.5c0,51.4,0,102.7,0,154.1c0,0.3,0,0.6,0,0.9c0.3,0,0.6,0,0.9,0
								c61,0,122,0,183,0c0.3,0,0.6,0,0.9,0c0,0,0,0.1-0.1,0.1c-0.2,0-0.3,0-0.5,0c-61.4,0-122.9,0-184.3,0c0-0.3,0-0.6,0-0.9
								c0-60.7,0-121.4,0-182.1C6.1-15.7,6.2-15.9,6.3-16.1z"/>
							<path class="st1" d="M50.6,44.5c1.5,0,3,0,4.4,0c0.2,0,0.4,0.3,0.5,0.5c1.9,4,3.9,8,5.8,12c0.1,0.2,0.2,0.4,0.3,0.7
								c0.4-0.8,0.8-1.6,1.1-2.3c1.7-3.4,3.3-6.9,4.9-10.3c0.2-0.4,0.4-0.6,0.9-0.6c1.3,0,2.7,0,4.1,0c0,8.2,0,16.3,0,24.5
								c-1.6,0-3.1,0-4.7,0c0-4.6,0-9.3,0-14.1c-0.2,0.3-0.3,0.4-0.3,0.5c-1.3,2.7-2.7,5.3-4,8c-0.2,0.5-0.5,0.6-1,0.6
								c-0.7,0-1.3,0-2,0c-0.4,0-0.6-0.2-0.8-0.5c-1.4-2.8-2.8-5.6-4.4-8.4c0,4.6,0,9.2,0,13.9c-1.6,0-3.2,0-4.8,0
								C50.6,60.9,50.6,52.7,50.6,44.5z"/>
							<path class="st1" d="M131.5,80.7c0.2,0,0.4,0,0.6,0c3.1,0,6.1,0,9.2,0c1.5,0,2.9,0.3,4.3,0.9c3.8,1.9,4.9,8.4,0.4,11
								c0,0,0.1,0.1,0.1,0.1c2.6,1.5,3.4,3.8,3,6.6c-0.4,2.7-1.8,4.6-4.5,5.4c-1,0.3-2,0.4-3,0.5c-3.2,0.1-6.4,0-9.6,0
								c-0.5,0-0.7-0.1-0.7-0.7c0-7.8,0-15.5,0-23.3C131.4,81.1,131.4,80.9,131.5,80.7z M136.3,95c0,2,0,3.9,0,5.8
								c1.9,0,3.8,0.1,5.6,0c1.5-0.1,2.5-1.3,2.5-2.9c0-1.6-0.9-2.8-2.4-2.9C140.1,94.9,138.2,95,136.3,95z M136.3,90.5
								c1.8,0,3.6,0.1,5.3,0c1.5-0.1,2.4-1.2,2.4-2.7c0-1.4-0.8-2.6-2.3-2.7c-1.8-0.1-3.6,0-5.5,0C136.3,86.9,136.3,88.7,136.3,90.5
								z"/>
							<path class="st1" d="M98.5,69c-5.4,0-10.7,0-16.1,0c0-8.2,0-16.3,0-24.5c5.4,0,10.7,0,16.1,0c0,1.4,0,2.8,0,4.2
								c-3.7,0-7.5,0-11.3,0c0,1.9,0,3.8,0,5.7c3.2,0,6.4,0,9.6,0c0,1.5,0,2.9,0,4.3c-3.2,0-6.4,0-9.6,0c0,2,0,3.9,0,5.9
								c3.7,0,7.5,0,11.3,0C98.5,66.2,98.5,67.6,98.5,69z"/>
							<path class="st1" d="M125.2,105.2c-1.6,0-3.2,0-4.7,0c-0.1,0-0.4-0.2-0.4-0.4c-0.4-1.2-0.8-2.3-1.2-3.5
								c-0.1-0.2-0.3-0.4-0.4-0.4c-2.8,0-5.5,0-8.3,0c-0.4,1.3-0.9,2.5-1.3,3.8c-0.1,0.4-0.3,0.6-0.8,0.6c-1.3,0-2.6,0-3.9,0
								c-0.2,0-0.4,0-0.6,0c0.5-1.3,0.9-2.5,1.3-3.7c2.5-6.7,4.9-13.5,7.3-20.2c0.2-0.5,0.4-0.7,1-0.7c0.8,0.1,1.6,0,2.4,0
								c0.5,0,0.7,0.1,0.8,0.6c1.8,5.1,3.7,10.2,5.6,15.3c1,2.7,2,5.4,3,8.2C125.1,104.8,125.1,105,125.2,105.2z M117.5,96.8
								c-1-2.9-1.9-5.8-2.9-8.8c-1.1,3-2,5.9-3,8.8C113.5,96.8,115.4,96.8,117.5,96.8z"/>
							<path class="st1" d="M126.9,69c0.5-1.3,0.9-2.5,1.3-3.7c2.4-6.7,4.9-13.4,7.3-20.1c0.2-0.5,0.4-0.8,1-0.7
								c0.8,0.1,1.6,0,2.4,0c0.5,0,0.7,0.1,0.9,0.6c2,5.5,4,11,6,16.5c0.8,2.3,1.7,4.6,2.5,6.9c0.1,0.1,0.1,0.3,0.2,0.5
								c-1.4,0-2.7,0-4.1,0c-0.7,0-1.1-0.2-1.3-0.9c-0.3-1-0.7-2-1-3c-0.1-0.3-0.2-0.5-0.6-0.5c-2.6,0-5.2,0-7.8,0
								c-0.3,0-0.5,0.1-0.6,0.4c-0.4,1.2-0.8,2.3-1.2,3.5c-0.1,0.2-0.3,0.4-0.5,0.4C130.1,69.1,128.5,69,126.9,69z M134.8,60.6
								c2,0,4,0,6,0c-1-2.9-1.9-5.8-2.9-8.7C136.8,54.8,135.8,57.7,134.8,60.6z"/>
							<path class="st1" d="M123.5,44.6c0,1.4,0,2.8,0,4.2c-2.1,0-4.2,0-6.3,0c0,6.8,0,13.4,0,20.2c-1.6,0-3.2,0-4.8,0
								c0-6.7,0-13.4,0-20.2c-2.2,0-4.3,0-6.4,0c0-1.5,0-2.8,0-4.3C111.8,44.6,117.6,44.6,123.5,44.6z"/>
							<path class="st1" d="M98.6,105.2c-5.3,0-10.6,0-15.9,0c0-8.2,0-16.3,0-24.5c1.6,0,3.1,0,4.8,0c0,6.7,0,13.4,0,20.2
								c0.3,0,0.6,0,0.8,0c3.2,0,6.5,0,9.7,0c0.5,0,0.6,0.1,0.6,0.6C98.5,102.7,98.6,103.9,98.6,105.2z"/>
							<path d="M136.3,95c1.9,0,3.8-0.1,5.7,0c1.5,0.1,2.4,1.3,2.4,2.9c0,1.6-0.9,2.8-2.5,2.9c-1.8,0.1-3.7,0-5.6,0
								C136.3,98.9,136.3,97,136.3,95z"/>
							<path d="M136.3,90.5c0-1.9,0-3.7,0-5.5c1.8,0,3.7-0.1,5.5,0c1.4,0.1,2.3,1.3,2.3,2.7c0,1.5-0.9,2.6-2.4,2.7
								C139.9,90.6,138.1,90.5,136.3,90.5z"/>
							<path d="M117.5,96.8c-2,0-4,0-6,0c1-2.9,2-5.7,3-8.8C115.5,91,116.5,93.9,117.5,96.8z"/>
							<path d="M134.8,60.6c1-2.9,2-5.7,3-8.7c1,3,2,5.8,2.9,8.7C138.8,60.6,136.8,60.6,134.8,60.6z"/>
						</g>
					</g>
					<g>
						<text transform="matrix(1 0 0 1 46.3119 131.5653)" class="st1 st2 st3">Nameface</text>
					</g>
				</g>
				<g>
					<rect x="43.3" y="70.6" class="st4" width="43.6" height="44.7"/>
					<text transform="matrix(1 0 0 1 43.3118 105.8745)" class="st5 st2 st6">+</text>
				</g>
			</g>
		</g>
	</mask>
	<g class="st7">
		<circle cx="98.5" cy="87.5" r="69.8"/>
		<path d="M98.5,159.8c-39.9,0-72.3-32.4-72.3-72.3c0-39.9,32.4-72.3,72.3-72.3s72.3,32.4,72.3,72.3
			C170.7,127.4,138.3,159.8,98.5,159.8z M98.5,20.2c-37.1,0-67.3,30.2-67.3,67.3c0,37.1,30.2,67.3,67.3,67.3s67.3-30.2,67.3-67.3
			C165.7,50.4,135.6,20.2,98.5,20.2z"/>
	</g>
	<g>
		<path class="st5" d="M47.4,90.2h11.2V77.9h4.1v12.3h11.2v3.9H62.7v12.3h-4.1V94.1H47.4V90.2z"/>
	</g>
</g>
</svg>
